<svg xmlns="http://www.w3.org/2000/svg" width="107" height="123" viewBox="0 0 107 123" fill="none">
  <path fill-rule="evenodd" clip-rule="evenodd" d="M10.3313 58.2291L20.2244 57.8729L20.3252 55.751L10.2863 56.2088L10.3313 58.2291Z" fill="#896307"/>
  <path fill-rule="evenodd" clip-rule="evenodd" d="M45.6209 45.5924C51.107 46.4584 54.9175 52.091 53.9382 58.3221C52.9589 64.5531 47.6052 68.7391 42.119 67.873C36.6329 67.007 32.8224 61.3744 33.8017 55.1434C34.7811 48.9124 40.1347 44.7264 45.6209 45.5924ZM56.0858 56.1363C55.981 49.943 51.8716 44.5334 45.9346 43.5962C39.2101 42.5347 32.9569 47.6552 31.8289 54.8319C31.8287 54.8334 31.8285 54.8348 31.8282 54.8363C31.6207 54.7525 31.3944 54.6719 31.153 54.6016C30.419 54.3877 29.4949 54.2566 28.5328 54.4579C28.41 51.9321 27.677 49.6129 26.4844 47.7814C25.0019 45.5047 22.7695 43.937 20.1152 43.7978C17.465 43.6588 15.0436 44.9781 13.2658 47.0724C11.4876 49.1674 10.3023 52.0854 10.0771 55.3265C9.85187 58.5674 10.624 61.5946 12.1053 63.8695C13.5878 66.1462 15.8203 67.714 18.4745 67.8531C21.1247 67.9921 23.5462 66.6728 25.3239 64.5785C27.0567 62.5371 28.2264 59.7143 28.4935 56.5725C29.1849 56.2891 29.918 56.3459 30.5946 56.5431C31.0162 56.6659 31.3844 56.8361 31.6525 56.9801C31.6055 63.3181 35.757 68.9145 41.8053 69.8693C48.5297 70.9308 54.783 65.8102 55.911 58.6335C55.9338 58.4887 55.9543 58.344 55.9726 58.1996L73.4029 55.3858C76.6728 54.9325 79.9367 55.0829 82.3471 55.8939C84.7649 56.7074 86.041 59.7002 86.0794 61.5587L88.0765 61.5105C88.0128 58.4205 85.7737 54.9157 82.9827 53.9766C80.1868 53.0359 76.5879 52.9044 73.1259 53.3857L73.1152 53.3872L56.0858 56.1363ZM24.8151 48.8961C26.0322 50.7653 26.7176 53.344 26.52 56.1887C26.3223 59.0331 25.2843 61.528 23.8098 63.2651C22.3348 65.0028 20.4742 65.9346 18.5838 65.8355C16.6975 65.7366 14.9906 64.6221 13.7746 62.7548C12.5575 60.8856 11.8721 58.3069 12.0698 55.4623C12.2675 52.6178 13.3055 50.1229 14.7799 48.3859C16.2549 46.6482 18.1156 45.7163 20.0059 45.8154C21.8923 45.9143 23.5992 47.0288 24.8151 48.8961Z" fill="#C5900F"/>
</svg>